<?xml version="1.0" encoding="utf-8"?>
<svg viewBox="0 0 500 500" xmlns="http://www.w3.org/2000/svg">
  <defs>
    <radialGradient gradientUnits="userSpaceOnUse" cx="250.644" cy="230.054" r="250" id="gradient-0" spreadMethod="pad">
      <stop offset="0" style="stop-color: rgba(89, 28, 135, 1)"/>
      <stop offset="1" style="stop-color: rgba(33, 11, 51, 1)"/>
    </radialGradient>
  </defs>
  <path d="M 222.872 0.094 C 231.219 -0.745 238.732 4.288 246.244 5.126 C 257.095 6.804 265.442 -0.745 276.294 0.094 C 284.641 1.771 290.484 7.643 298.831 10.159 C 308.014 12.676 317.195 8.482 327.212 10.998 C 335.56 13.514 340.567 22.741 348.915 26.096 C 357.262 29.451 366.444 27.773 373.956 31.967 C 383.139 36.161 385.643 47.065 393.99 52.937 C 401.502 57.13 410.685 57.13 416.528 63.002 C 423.205 68.034 424.04 77.261 429.048 83.971 C 434.892 92.359 446.578 94.036 452.421 102.424 C 457.429 109.973 455.76 119.199 460.768 126.748 C 464.941 135.136 474.124 139.33 478.297 147.718 C 482.471 155.266 479.132 164.493 481.636 172.881 C 484.14 182.107 492.487 187.978 494.992 197.205 C 496.661 206.432 491.653 214.819 492.487 223.207 C 493.323 232.433 500 240.821 500 250.047 C 500 259.274 493.323 266.822 492.487 276.049 C 491.653 285.276 496.661 292.825 494.992 302.051 C 492.487 311.277 484.975 317.149 481.636 325.537 C 479.132 334.763 482.471 343.989 478.297 352.377 C 474.124 360.765 464.941 364.959 460.768 372.507 C 455.76 380.056 457.429 390.961 452.421 398.51 C 446.578 405.22 437.395 406.897 431.552 413.607 C 424.875 420.318 424.04 430.383 417.362 437.093 C 410.685 442.126 402.338 442.964 394.825 446.319 C 385.643 452.191 383.139 463.933 373.122 468.966 C 365.609 472.321 356.427 470.644 348.08 473.999 C 340.567 478.192 335.56 486.581 327.212 489.096 C 318.865 491.613 309.683 488.258 301.336 489.096 C 292.154 490.774 285.476 499.162 276.294 500 C 267.112 500 258.765 494.129 248.748 494.129 C 240.401 494.968 233.723 500 225.376 500 C 215.359 499.162 208.682 490.774 199.499 489.096 C 190.317 488.258 181.136 491.613 172.788 489.096 C 164.441 485.741 159.433 477.354 151.085 473.999 C 142.738 469.805 132.721 472.321 125.209 468.128 C 116.862 463.095 113.522 453.029 106.011 447.158 C 98.498 442.126 89.316 442.964 82.638 436.254 C 75.125 430.383 75.125 419.478 68.448 412.769 C 61.77 406.897 52.588 404.381 47.579 397.671 C 41.736 390.122 43.406 380.056 39.232 372.507 C 34.224 364.12 25.042 360.765 20.868 352.377 C 17.53 343.989 20.868 334.763 18.364 326.375 C 15.86 317.988 7.513 312.116 5.009 302.889 C 3.34 293.663 8.347 285.276 7.513 276.049 C 6.678 266.822 0 259.274 0 250.047 C 0 240.821 6.678 234.111 7.513 224.884 C 9.183 215.658 3.34 206.432 5.843 197.205 C 8.347 188.817 15.86 183.785 18.364 175.397 C 20.868 166.17 17.53 156.105 21.703 147.718 C 25.877 140.169 35.059 135.974 39.232 128.426 C 44.24 120.877 42.571 110.811 47.579 102.424 C 53.423 95.714 63.439 93.197 69.282 86.488 C 75.125 79.777 75.96 69.712 82.638 63.84 C 89.316 58.808 97.663 57.969 105.175 53.775 C 114.358 48.743 116.862 37.839 125.209 31.967 C 133.556 27.773 142.738 30.289 151.085 26.935 C 159.433 23.58 164.441 14.353 172.788 10.998 C 182.805 8.482 191.987 13.514 202.003 10.998 C 209.516 8.482 215.359 1.771 222.872 0.094 M 240.401 96.552 C 229.555 105.368 220.488 116.187 213.69 128.426 C 210.35 135.136 207.012 142.685 207.012 150.234 C 205.556 173.73 222.92 194.148 246.244 196.366 C 269.926 197.809 290.372 179.878 292.154 156.105 C 292.41 145.694 289.497 135.452 283.807 126.748 C 277.801 116.38 270.193 107.037 261.269 99.069 C 257.93 95.714 253.756 93.197 249.583 91.52 C 246.244 92.359 243.739 94.875 240.401 96.552 M 131.052 228.24 L 131.052 333.085 C 131.052 336.441 130.217 340.634 126.878 342.312 C 122.705 345.667 115.192 343.151 114.358 337.28 L 113.522 321.343 L 95.994 321.343 L 96.828 338.118 C 101.67 358.2 126.329 365.484 141.215 351.23 C 145.975 346.672 148.895 340.511 149.416 333.925 L 149.416 227.4 L 131.052 228.24 M 182.805 229.078 C 172.223 232.014 164.776 241.537 164.441 252.563 L 164.441 334.763 C 164.003 341.043 165.776 347.278 169.45 352.377 C 181.276 367.675 205.146 364.372 212.418 346.431 C 212.958 345.098 213.384 343.719 213.69 342.312 L 214.524 328.053 L 214.524 255.08 C 214.629 250.119 213.48 245.214 211.186 240.821 C 206.177 230.755 193.656 225.723 182.805 228.24 M 230.384 228.24 L 230.384 245.854 L 248.748 245.854 L 248.748 248.37 L 229.549 361.604 L 275.459 361.604 L 275.459 343.989 L 250.418 343.989 L 263.773 266.822 L 269.616 228.24 C 256.539 228.114 243.462 228.114 230.384 228.24 M 291.319 228.24 C 291.098 234.109 291.098 239.985 291.319 245.854 L 309.683 245.854 L 308.014 258.435 L 297.162 323.859 L 291.319 361.604 L 337.229 361.604 L 337.229 343.989 L 312.187 343.989 L 313.857 331.408 L 326.377 260.113 L 331.386 228.24 L 291.319 228.24 M 370.618 229.078 C 360.035 232.014 352.589 241.537 352.254 252.563 L 352.254 335.602 C 352.254 343.151 355.593 350.7 361.436 355.732 C 369.783 363.281 383.973 364.12 392.321 356.571 C 398.758 351.556 402.469 343.787 402.338 335.602 L 402.338 256.758 C 402.338 250.886 402.338 245.015 398.999 240.821 C 393.314 230.857 381.636 226.026 370.618 229.078 M 183.64 376.702 C 183.51 388.164 183.51 399.629 183.64 411.091 L 194.491 411.091 L 194.491 406.897 L 187.813 406.059 L 187.813 376.702 L 182.805 376.702 M 309.683 377.54 L 309.683 380.895 L 313.857 381.734 C 313.021 391.799 310.518 401.026 308.848 411.091 L 320.534 411.091 L 320.534 406.897 L 314.691 406.059 L 318.865 377.54 C 315.528 377.365 312.185 377.365 308.848 377.54 M 327.212 376.702 L 327.212 411.091 L 338.063 411.091 L 338.063 406.897 L 331.386 406.059 L 331.386 376.702 L 327.212 376.702 M 344.741 377.54 L 344.741 411.091 L 355.593 411.091 L 355.593 406.897 L 348.915 406.059 C 348.558 401.872 348.558 397.663 348.915 393.477 L 354.758 392.638 L 354.758 388.444 L 348.915 388.444 L 348.915 381.734 L 355.593 381.734 L 355.593 377.54 C 351.978 377.34 348.355 377.34 344.741 377.54 M 146.077 381.734 L 145.242 399.348 C 145.242 402.703 144.407 406.059 146.911 408.574 C 149.416 411.091 153.59 411.091 156.094 408.574 C 157.763 406.897 157.763 403.542 157.763 401.026 L 154.424 401.026 L 152.755 406.059 L 150.251 405.22 L 150.251 381.734 L 151.92 381.734 L 154.424 385.089 L 157.763 385.089 C 157.763 382.573 157.763 380.056 156.094 378.379 C 152.755 375.863 146.077 377.54 145.242 381.734 M 167.78 377.54 C 163.606 380.056 164.441 385.089 164.441 388.444 L 164.441 406.059 C 165.276 410.252 171.119 411.93 174.457 409.414 C 176.962 406.897 176.962 403.542 176.962 400.187 L 176.127 381.734 C 176.127 377.54 171.119 375.863 167.78 377.54 M 203.673 377.54 C 201.169 379.218 200.334 382.573 200.334 385.089 L 200.334 404.381 C 200.304 407.323 202.445 409.832 205.343 410.252 C 208.682 411.091 212.02 409.414 212.855 406.059 L 212.855 380.895 C 211.186 377.54 207.012 375.863 203.673 377.54 M 219.533 377.54 L 219.533 411.091 L 223.706 411.091 L 224.541 403.542 L 227.88 411.091 L 232.053 411.091 L 229.549 403.542 C 230.384 401.026 232.053 399.348 232.053 396.832 L 232.053 384.251 C 232.053 381.734 231.219 379.218 229.549 377.54 L 219.533 377.54 M 252.087 377.54 L 252.087 411.091 L 256.261 411.091 L 257.095 404.381 C 259.599 403.542 262.938 403.542 263.773 400.187 C 265.442 395.993 264.608 390.961 264.608 386.767 C 264.608 383.411 264.608 380.056 262.104 378.379 C 259.599 376.702 255.426 376.702 252.087 377.54 M 271.285 377.54 L 271.285 399.348 C 271.285 402.703 270.451 406.897 273.79 408.574 C 276.294 411.93 282.972 410.252 283.807 406.059 L 284.641 397.671 L 284.641 377.54 L 280.468 377.54 L 280.468 404.381 C 280.468 406.897 275.459 406.897 275.459 404.381 L 275.459 377.54 L 271.285 377.54 M 291.319 377.54 L 291.319 380.895 L 295.493 381.734 L 291.319 410.252 L 303.005 410.252 L 303.005 406.059 L 296.327 406.059 L 301.336 377.54 L 291.319 377.54 Z M 238.732 102.424 L 249.583 94.875 C 266.939 105.915 280.153 122.438 287.145 141.846 C 293.602 162.948 281.557 185.263 260.434 191.333 C 231.433 199.803 204.184 173.551 211.384 144.079 C 212.374 140.028 213.998 136.159 216.193 132.619 C 222.076 121.2 229.998 110.963 239.566 102.424 M 250.418 102.424 C 250.418 105.779 252.922 106.618 254.591 109.134 C 258.765 111.651 261.269 115.844 264.608 119.199 C 265.442 120.038 267.112 120.877 267.947 120.038 C 267.947 116.683 265.442 115.006 263.773 112.489 L 252.087 101.585 L 250.418 102.424 M 271.285 125.07 L 270.451 126.748 C 271.285 130.103 272.955 132.619 275.459 135.136 L 277.964 135.136 C 277.964 130.942 275.459 128.426 272.955 125.07 L 271.285 125.07 M 228.715 146.04 C 227.045 147.718 227.045 151.073 227.88 153.589 C 227.88 155.266 228.715 156.944 230.384 156.944 C 233.723 156.944 234.558 152.75 234.558 150.234 C 234.558 147.718 232.053 144.362 228.715 146.04 M 266.278 146.04 C 263.773 148.556 263.773 154.428 267.112 156.105 C 269.616 157.783 272.121 153.589 272.121 151.073 C 272.121 148.556 269.616 144.362 266.278 146.04 M 229.549 161.137 C 227.045 161.137 226.21 164.493 227.88 166.17 C 230.999 173.762 238.096 178.948 246.244 179.591 C 254.591 180.429 263.773 177.913 268.781 171.203 C 270.451 168.687 272.121 166.17 272.121 162.815 C 270.451 160.299 267.112 160.299 264.608 160.299 L 229.549 161.137 Z M 186.144 245.854 C 191.152 244.176 196.996 248.37 196.16 253.403 L 196.996 333.925 C 196.996 336.441 196.996 339.796 194.491 341.473 C 191.987 343.989 187.813 344.829 185.309 342.312 C 182.805 340.634 181.97 337.28 181.97 334.763 L 181.97 254.241 C 181.97 250.886 183.64 247.531 186.144 245.854 Z M 374.792 245.854 C 378.13 245.015 381.469 245.854 383.139 249.208 C 384.808 250.886 384.808 252.563 384.808 255.08 L 384.808 334.763 C 384.808 337.28 384.808 339.796 382.304 341.473 C 379.347 344.577 374.411 344.577 371.453 341.473 L 370.618 333.925 L 370.618 254.241 C 369.783 250.886 371.453 246.692 374.792 245.854 Z M 169.45 381.734 L 171.953 381.734 L 172.788 394.315 L 171.953 406.059 L 169.45 406.059 C 167.78 401.865 168.614 396.832 168.614 392.638 C 168.614 389.283 167.78 385.089 169.45 381.734 Z M 205.343 381.734 L 207.846 381.734 C 209.516 385.089 208.682 389.283 208.682 393.477 C 208.682 397.671 209.516 401.865 207.846 406.059 L 205.343 406.059 L 205.343 381.734 Z M 223.706 381.734 L 227.045 381.734 L 227.045 399.348 L 223.706 399.348 L 223.706 381.734 Z M 256.261 381.734 L 259.599 381.734 L 259.599 399.348 L 256.261 399.348 L 256.261 381.734 Z" style="fill: url(#gradient-0);"/>
  <path d="M 240.233 96.247 C 229.387 105.063 220.32 115.882 213.522 128.121 C 210.182 134.831 206.844 142.38 206.844 149.929 C 205.388 173.425 222.752 193.843 246.076 196.061 C 269.758 197.504 290.204 179.573 291.986 155.8 C 292.242 145.389 289.329 135.147 283.639 126.443 C 277.633 116.075 270.025 106.732 261.101 98.764 C 257.762 95.409 253.588 92.892 249.415 91.215 C 246.076 92.054 243.571 94.57 240.233 96.247 Z M 130.884 227.935 L 130.884 332.78 C 130.884 336.136 130.049 340.329 126.71 342.007 C 122.537 345.362 115.024 342.846 114.19 336.975 L 113.354 321.038 L 95.826 321.038 L 96.66 337.813 C 101.502 357.895 126.161 365.179 141.047 350.925 C 145.807 346.367 148.727 340.206 149.248 333.62 L 149.248 227.095 L 130.884 227.935 Z M 182.637 228.773 C 172.055 231.709 164.608 241.232 164.273 252.258 L 164.273 334.458 C 163.835 340.738 165.608 346.973 169.282 352.072 C 181.108 367.37 204.978 364.067 212.25 346.126 C 212.79 344.793 213.216 343.414 213.522 342.007 L 214.356 327.748 L 214.356 254.775 C 214.461 249.814 213.312 244.909 211.018 240.516 C 206.009 230.45 193.488 225.418 182.637 227.935 L 182.637 228.773 Z M 230.216 227.935 L 230.216 245.549 L 248.58 245.549 L 248.58 248.065 L 229.381 361.299 L 275.291 361.299 L 275.291 343.684 L 250.25 343.684 L 263.605 266.517 L 269.448 227.935 C 256.371 227.809 243.294 227.809 230.216 227.935 Z M 291.151 227.935 C 290.93 233.804 290.93 239.68 291.151 245.549 L 309.515 245.549 L 307.846 258.13 L 296.994 323.554 L 291.151 361.299 L 337.061 361.299 L 337.061 343.684 L 312.019 343.684 L 313.689 331.103 L 326.209 259.808 L 331.218 227.935 L 291.151 227.935 Z M 370.45 228.773 C 359.867 231.709 352.421 241.232 352.086 252.258 L 352.086 335.297 C 352.086 342.846 355.425 350.395 361.268 355.427 C 369.615 362.976 383.805 363.815 392.153 356.266 C 398.59 351.251 402.301 343.482 402.17 335.297 L 402.17 256.453 C 402.17 250.581 402.17 244.71 398.831 240.516 C 393.146 230.552 381.468 225.721 370.45 228.773 Z M 183.472 376.397 C 183.342 387.859 183.342 399.324 183.472 410.786 L 194.323 410.786 L 194.323 406.592 L 187.645 405.754 L 187.645 376.397 L 183.472 376.397 Z M 309.515 377.235 L 309.515 380.59 L 313.689 381.429 C 312.853 391.494 310.35 400.721 308.68 410.786 L 320.366 410.786 L 320.366 406.592 L 314.523 405.754 L 318.697 377.235 C 315.36 377.06 312.017 377.06 308.68 377.235 L 309.515 377.235 Z M 327.044 376.397 L 327.044 410.786 L 337.895 410.786 L 337.895 406.592 L 331.218 405.754 L 331.218 376.397 L 327.044 376.397 Z M 344.573 377.235 L 344.573 410.786 L 355.425 410.786 L 355.425 406.592 L 348.747 405.754 C 348.39 401.567 348.39 397.358 348.747 393.172 L 354.59 392.333 L 354.59 388.139 L 348.747 388.139 L 348.747 381.429 L 355.425 381.429 L 355.425 377.235 C 351.81 377.035 348.187 377.035 344.573 377.235 Z M 145.909 381.429 L 145.074 399.043 C 145.074 402.398 144.239 405.754 146.743 408.269 C 149.248 410.786 153.422 410.786 155.926 408.269 C 157.595 406.592 157.595 403.237 157.595 400.721 L 154.256 400.721 L 152.587 405.754 L 150.083 404.915 L 150.083 381.429 L 151.752 381.429 L 154.256 384.784 L 157.595 384.784 C 157.595 382.268 157.595 379.751 155.926 378.074 C 152.587 375.558 145.909 377.235 145.074 381.429 L 145.909 381.429 Z M 167.612 377.235 C 163.438 379.751 164.273 384.784 164.273 388.139 L 164.273 405.754 C 165.108 409.947 170.951 411.625 174.289 409.109 C 176.794 406.592 176.794 403.237 176.794 399.882 L 175.959 381.429 C 175.959 377.235 170.951 375.558 167.612 377.235 Z M 203.505 377.235 C 201.001 378.913 200.166 382.268 200.166 384.784 L 200.166 404.076 C 200.136 407.018 202.277 409.527 205.175 409.947 C 208.514 410.786 211.852 409.109 212.687 405.754 L 212.687 380.59 C 211.018 377.235 206.844 375.558 203.505 377.235 Z M 219.365 377.235 L 219.365 410.786 L 223.538 410.786 L 224.373 403.237 L 227.712 410.786 L 231.885 410.786 L 229.381 403.237 C 230.216 400.721 231.885 399.043 231.885 396.527 L 231.885 383.946 C 231.885 381.429 231.051 378.913 229.381 377.235 L 219.365 377.235 Z M 251.919 377.235 L 251.919 410.786 L 256.093 410.786 L 256.927 404.076 C 259.431 403.237 262.77 403.237 263.605 399.882 C 265.274 395.688 264.44 390.656 264.44 386.462 C 264.44 383.106 264.44 379.751 261.936 378.074 C 259.431 376.397 255.258 376.397 251.919 377.235 Z M 271.117 377.235 L 271.117 399.043 C 271.117 402.398 270.283 406.592 273.622 408.269 C 276.126 411.625 282.804 409.947 283.639 405.754 L 284.473 397.366 L 284.473 377.235 L 280.3 377.235 L 280.3 404.076 C 280.3 406.592 275.291 406.592 275.291 404.076 L 275.291 377.235 L 271.117 377.235 Z M 291.151 377.235 L 291.151 380.59 L 295.325 381.429 L 291.151 409.947 L 302.837 409.947 L 302.837 405.754 L 296.159 405.754 L 301.168 377.235 L 291.151 377.235 Z M 238.564 102.119 L 249.415 94.57 C 266.771 105.61 279.985 122.133 286.977 141.541 C 293.434 162.643 281.389 184.958 260.266 191.028 C 231.265 199.498 204.016 173.246 211.216 143.774 C 212.206 139.723 213.83 135.854 216.025 132.314 C 221.908 120.895 229.83 110.658 239.398 102.119 L 238.564 102.119 Z M 250.25 102.119 C 250.25 105.474 252.754 106.313 254.423 108.829 C 258.597 111.346 261.101 115.539 264.44 118.894 C 265.274 119.733 266.944 120.572 267.779 119.733 C 267.779 116.378 265.274 114.701 263.605 112.184 L 251.919 101.28 L 250.25 102.119 Z M 271.117 124.765 L 270.283 126.443 C 271.117 129.798 272.787 132.314 275.291 134.831 L 277.796 134.831 C 277.796 130.637 275.291 128.121 272.787 124.765 L 271.117 124.765 Z M 228.547 145.735 C 226.877 147.413 226.877 150.768 227.712 153.284 C 227.712 154.961 228.547 156.639 230.216 156.639 C 233.555 156.639 234.39 152.445 234.39 149.929 C 234.39 147.413 231.885 144.057 228.547 145.735 Z M 266.11 145.735 C 263.605 148.251 263.605 154.123 266.944 155.8 C 269.448 157.478 271.953 153.284 271.953 150.768 C 271.953 148.251 269.448 144.057 266.11 145.735 Z M 229.381 160.832 C 226.877 160.832 226.042 164.188 227.712 165.865 C 230.831 173.457 237.928 178.643 246.076 179.286 C 254.423 180.124 263.605 177.608 268.613 170.898 C 270.283 168.382 271.953 165.865 271.953 162.51 C 270.283 159.994 266.944 159.994 264.44 159.994 L 229.381 160.832 Z M 185.976 245.549 C 190.984 243.871 196.828 248.065 195.992 253.098 L 196.828 333.62 C 196.828 336.136 196.828 339.491 194.323 341.168 C 191.819 343.684 187.645 344.524 185.141 342.007 C 182.637 340.329 181.802 336.975 181.802 334.458 L 181.802 253.936 C 181.802 250.581 183.472 247.226 185.976 245.549 Z M 374.624 245.549 C 377.962 244.71 381.301 245.549 382.971 248.903 C 384.64 250.581 384.64 252.258 384.64 254.775 L 384.64 334.458 C 384.64 336.975 384.64 339.491 382.136 341.168 C 379.179 344.272 374.243 344.272 371.285 341.168 L 370.45 333.62 L 370.45 253.936 C 369.615 250.581 371.285 246.387 374.624 245.549 Z M 169.282 381.429 L 171.785 381.429 L 172.62 394.01 L 171.785 405.754 L 169.282 405.754 C 167.612 401.56 168.446 396.527 168.446 392.333 C 168.446 388.978 167.612 384.784 169.282 381.429 Z M 205.175 381.429 L 207.678 381.429 C 209.348 384.784 208.514 388.978 208.514 393.172 C 208.514 397.366 209.348 401.56 207.678 405.754 L 205.175 405.754 L 205.175 381.429 Z M 223.538 381.429 L 226.877 381.429 L 226.877 399.043 L 223.538 399.043 L 223.538 381.429 Z M 256.093 381.429 L 259.431 381.429 L 259.431 399.043 L 256.093 399.043 L 256.093 381.429 Z" style="fill: rgb(238, 238, 238);"/>
</svg>