<svg xmlns="http://www.w3.org/2000/svg" viewBox="0 0 122.9 112.7" color="cornflowerblue" >
  <path d="M6.6 52C33 57.3 43.2 89.5 86.3 67.8L58 96.1l-.6.6a7 7 0 0 1-4.3 2.6 13.6 13.6 0 0 1-4.2.2 21.5 21.5 0 0 1-4.8-1C36.7 96 28.9 90.7 22.3 84s-12-14.5-14.7-22a25.3 25.3 0 0 1-1-3.7 17.9 17.9 0 0 1-.3-3.3 12.9 12.9 0 0 1 .3-3.1Z" fill="currentColor"/>
  <path d="m110.6 85-3.6-5.7-4.2 6.6a43.4 43.4 0 0 0-6.7 12.6c0 4.6 2.2 7.7 5.2 9.2a12.6 12.6 0 0 0 5 1.2 13 13 0 0 0 5.1-.7 9.5 9.5 0 0 0 6.4-8c.1-4-3.5-9.5-7.2-15.3Z"/>
  <path d="M111.2 72.8a36 36 0 0 0 5.5 10.5c3.3 5 6.5 9.9 6.1 15.5v.2a14.8 14.8 0 0 1-10 12.7 17.4 17.4 0 0 1-6.8 1 17 17 0 0 1-6.7-1.8A14.8 14.8 0 0 1 91 97c0-3.9 2.8-8.2 5.8-13a43 43 0 0 0 5.9-11.3 4.4 4.4 0 0 1 8.6 0Z"/>
  <path d="M107 73.8c2.1 9.2 12 17 11.5 24.7-1.5 13.6-23 13-23-1.5 0-5.2 9.7-15.3 11.5-23.2Z" fill="currentColor"/>
  <path d="M34.6 13.8c-10.2 1-16.2 4.6-19 9a13.4 13.4 0 0 0-1.2 10.7l.1.4 20.1-20.1Zm46.2 11a91.5 91.5 0 0 0-20.7-16c-4.3-2.3-7.7-3.2-9.4-2.3l-.8.9c-1.2 2-.5 6.2 1.8 11.6a68.8 68.8 0 0 0 14.5 20.5 74 74 0 0 0 20.7 15c4.6 2 8.3 2.9 10.4 2.3l2-2c.4-1.8-.6-5-2.6-9a84 84 0 0 0-15.9-21ZM62.9 3.2c6.7 3.5 14.6 9.6 22.3 17.3S99 36.3 102.3 43c3.8 7.5 4.4 14 .7 17.6a8.2 8.2 0 0 1-2 1.4l-39.1 39.1c-2.4 2.4-3.3 3.4-7.4 4.3a20 20 0 0 1-6.1.3 27.5 27.5 0 0 1-6.3-1.3c-8.3-2.8-17-8.7-24.2-15.9S4.6 72.6 1.7 64.2a30.3 30.3 0 0 1-1.3-4.6 23.6 23.6 0 0 1-.4-4.5 15.3 15.3 0 0 1 1.2-6.8A17.8 17.8 0 0 1 5 43.4l.2-.1 4.7-4.7A24 24 0 0 1 8.6 35a19.1 19.1 0 0 1 2-15.3c4.2-7 13.8-12.2 30.4-12.4l4.2-4.1a7 7 0 0 1 1.5-1.6 2.5 2.5 0 0 1 .7-.5C51.1-1 56.6 0 63 3.2Zm28.6 59.5a35.8 35.8 0 0 1-7.1-2.4c-7-3.2-15.1-8.8-22.6-16.3a75.3 75.3 0 0 1-15.9-22.5 35 35 0 0 1-2.4-7.6l-26 26a25.5 25.5 0 0 0 4 4.6 29.3 29.3 0 0 0 31.7 4.3 3 3 0 0 1 2.3 5.5 35.3 35.3 0 0 1-38-5.3 32 32 0 0 1-4.4-4.8L9.4 48A12.7 12.7 0 0 0 7 51a9.7 9.7 0 0 0-.6 4.1 17.9 17.9 0 0 0 .3 3.3 25.3 25.3 0 0 0 1 3.8c2.6 7.4 8 15.2 14.7 21.9S36.7 96 44.1 98.5a21.5 21.5 0 0 0 4.8 1 13.6 13.6 0 0 0 4.2-.2 7 7 0 0 0 4.3-2.6l.6-.6 33.5-33.5Z"/>
</svg>