<svg xmlns="http://www.w3.org/2000/svg" width="1448" height="890pt" viewBox="0 0 1086 890">
  <g fill="#16170c">
    <path d="M877 22c1-2 4-2 6-3 1 17 2 35-3 52l-7 21c-4 10-7 20-14 28l10-22c7-16 12-34 13-51 0-8 1-17-1-25l-13 21a216 216 0 0 1-90 63l-1 2 38-7c11-3 23-5 34-11-2 18-6 35-12 52l-8 23a111 111 0 0 0 79-53l10-17 3 15c0 5 3 8 5 12 6-6 13-12 20-16 8-5 16-11 25-12l-14 17a73 73 0 0 0-17 44l18 1 16-1c-9 6-19 11-29 15-12 4-24 5-36 7 11 15 23 30 36 44l14 12c5 5 10 9 16 11l10 5c-15 5-32 5-48 1 12 16 19 34 24 52 4 18 6 37 8 55 2 15 3 31 9 46 6 11 12 22 21 31l7 7-27-9c1 8 5 16 6 25 2 16 3 34-3 50-10-7-22-14-28-25l-5-7c0 16 6 32 7 48-6-6-9-13-13-20l-7-20-3 18c-5-7-6-14-9-21l-14-51c-2-7-2-14-5-21l-6 28c-2 11-2 23-3 34v31c5-8 8-17 11-27l7 19c8 24 17 48 24 73l7 23h2l3-32c1-8 0-15 2-23 3 7 3 15 5 22l7 19c2-5 2-11 3-16 5 8 7 18 12 26 6 12 12 23 20 33l-6 2c-5 0-9-3-14-4l-11-2c-1-4-2-8-5-10l-1 6-14-7-1-10-5 8-18-3c-9 1-19-2-28-1h-38c-8 0-16-1-25 1l-11-1c5-6 13-8 19-12s14-7 18-12h-4l7-7-18-6c-3-1-6 1-9 3-12 9-26 16-39 24a1662 1662 0 0 1-80 40 3477 3477 0 0 1-565 201c-16 4-33 7-49 9l-24 3c-12 1-24 0-36-2-8-2-16-6-21-13l2-3c8 5 15 10 24 11 11 2 21 3 31-1l99-46 23-11c23-12 45-26 64-43 6-5 12-9 17-15l-21 7c-16 6-33 10-50 15a540 540 0 0 1-99 14c-7 0-13 2-20 0 6-4 14-5 21-7a721 721 0 0 0 112-42 253 253 0 0 0 128-118c2-4 3-9 0-13-5-7-13-11-22-12-12-2-25 0-38-1l11-9c-21 1-42 6-62 12-23 8-46 18-69 28-5 3-11 5-16 10l-19 25-25 35-8 13c-5 7-8 14-14 20-1-4-5-7-8-9l-11 10c-4 2-7 6-10 10 0-6 3-12 5-18 0-2 3-3 5-5l-6 14c6-4 11-10 18-13l10-5c4-2 5-5 7-8 4-5 8-10 10-16-9 1-17 5-24 11l-14 16c2-8 9-13 15-19 5-4 11-6 17-9-1-3-1-7-3-10-4-3-9-5-12-9l20 10c2 1 5 2 7 1 3-2 5-5 6-8l10-14c-7-4-15-7-20-14l16-10c-7-6-16-9-21-17l14-7c8-3 13-9 20-13 2-2 4-3 5-6 2-7 3-14 3-22 4-17 1-35-1-52-2-7-6-14-7-22l14 13 21 16c6 4 13 8 20 9 8 1 16 0 23-3a257 257 0 0 0 84-68c9-10 16-20 22-32 5-9 8-21 4-31-3-9-8-17-14-24a300 300 0 0 0-116-88c-9-5-21-7-31-5-10 1-18 6-25 12-12 12-22 26-32 40-4 5-8 11-13 15v-16c4-8 5-16 7-24 7-34 19-67 39-95 7-7 13-16 21-22l13-12c28-20 62-30 96-34 21-3 42-3 63-3 24 0 49 1 73 3 9 0 19 4 28 0 4 0 6 3 8 5s4 1 6 2l25 1 24 4 33 5h16l30 3 25 1h19l24-1c8-1 17 0 26-2l37-5c15-4 31-8 47-10 5 0 7-5 11-7 13-6 28-10 40-19l11-6c3-1 5-4 7-7l9-4 22-20 13-17 6-12M691 190c-3 4-7 8-8 13l-4 16c-2 10-3 21-6 31l-5 32-26 138c-2 10-5 20-5 31l-2-2-1 11 24 3c-1-11 2-21 4-31l6-27 8-57 1-20c1-4 3-8 6-11 2-2 5-3 5-6l1-25 4-27c3-14 7-28 15-39 3-4 8-8 14-7 5 1 8 5 11 8 7-1 15-3 22 0 6 2 9 8 13 12 8-3 18-4 27 0l10 11c5-1 11-2 16-1 7 2 15 7 15 15v29c-1 25-4 50-7 75-2 18-7 36-10 53l-13 68c-1 7-4 13-3 20l20 7 7-38 14-79c3-11 4-23 6-34l7-37 3-24 7-37c1-8 2-17-2-25-3-5-7-10-12-12-21-9-43-13-64-20l-51-12-30-6c-6-1-12 1-17 4m22 33c-7 7-9 17-12 25-4 10-5 20-6 30-2 11-1 23-2 35l9 2 7 6c1 6 2 11 1 17h8l4-26 8-82c1-3-2-6-4-9-1-2-4-4-6-4-3 1-5 3-7 6m22 4-1 8-1 28-2 19-2 10-4 34c-2 4-2 8-2 13 10 0 20 0 29 3l10-59 1-31v-14c0-3-3-6-5-9-4-5-12-5-18-4-2 0-4 0-5 2m-244 8c-11 3-22 7-31 13-7 4-15 8-20 13-24 22-39 54-38 86 0 10 0 20 2 29 2 7 3 14 6 19a118 118 0 0 0 19 32c10 11 22 22 37 26 8 3 17 1 26 1l19-1 26 1h41a114 114 0 0 0 62-95c1-15 2-31-3-45-1-7-3-13-6-19l-13-21-11-11c-6-6-13-10-20-15l-6-3c-11-6-23-9-35-12-18-4-37-2-55 2m277 3v38c-4 22-9 44-11 66l15 5 13 5 4-25 7-32 3-21 1-26c0-3-2-5-4-7s-5-5-8-5c-7-2-13 0-20 2m36 12c0 20 0 39-6 58-4 16-7 31-9 47 5 3 10 5 13 9 2 1 2 3 2 4-3 0-5-1-7-3-16-10-34-17-52-20-12-2-23-1-35-1-1 16 0 32 2 49l12 8 8 14c2 6 2 13 3 20 1 9-1 19-1 28l-2 17c14 3 28 9 42 13l23 8c3-8 3-16 5-23l6-28c1-12 5-23 7-35l8-47 4-37c2-19 5-37 4-56v-18c0-4-4-6-7-8-6-2-14-2-20 1m28 11 1 26-1-26m-150 68-3 36-5 30c0 9-4 17-5 25-4 15-6 29-7 44 8 3 17 4 26 5l23 6 16 4c2-14 4-29 3-43 0-10-2-20-7-28-4-6-11-9-17-12 0-20-3-40-1-60v-11c-2-5-8-8-14-7-5 1-9 6-9 11M428 463l-22 2c-2 0-1 3-1 4v34c7 1 13-1 19-1l54-4c35 0 69-1 104 1l39 4c7 0 14 2 21 1-1-13 3-25 3-37l-25-3c-9-2-19-2-28-3a521 521 0 0 0-65-2h-49l-50 4m-77 12c-7 1-13 4-20 4l2 1c-11 2-22 6-32 9l-25 8-21 9-14 7c-15 6-28 14-42 21l-21 13c-7 4-14 7-20 12-4 2-3 7-3 11 0 8 0 16 2 23l19-12 41-22 32-14c17-7 35-13 53-18 9-3 19-7 29-8l36-8 33-6v-38c-17 1-33 5-49 8m299-6c-2 13-4 25-4 37l42 6 52 11c28 8 57 14 84 24l38 14 21 8v-25c0-2 1-5-1-5-8-4-15-7-23-9l-48-19c-14-6-29-11-44-15l-53-16-22-5-39-7-3 1m252 48c-5 2-8 7-10 12-6 12-6 25-5 38 1 8 3 17 10 22 4 2 9 2 12-2 6-5 9-13 10-21 3-14 3-28-1-42l-5-6c-5 9-11 20-11 31l-1 23a69 69 0 0 1 9-56c-2-1-6-1-8 1m-315 19c-19 2-38 6-57 10-35 8-70 19-101 39-6 4-12 7-16 12l12-4a399 399 0 0 1 118-21c18 0 36 2 53 8 11 4 22 11 27 22 2 4 2 9 2 14-1 4 0 9-2 13l-8 19-21 26 34-14 63-28 91-44-5-6c-7-7-15-13-24-18l-19-10c-1-1-3-2-4-1-6-4-13-5-20-7-11-4-23-6-34-8l-38-3c-17-1-34 1-51 1m-445 29c-1 13-1 27 4 39 3-2 6-4 6-8-1-10-3-21-2-32l-8 1m-8 7c-1 3-2 6-1 9 0 3 0 8 4 8v-16l-3-1m-19 11c3 4 8 8 14 9l-2-14-12 5m19 10c-1 7 0 14 3 21h4l1-7-4-14h-4m-15 18c5 4 10 6 16 8l-7-15c-3 2-8 3-9 7m-32 75-1 2 3-1 1-2-3 1Z"/>
    <path d="M927 56c3-4 5-9 10-12 2 8-2 16-3 23l1-18c-8 10-13 21-21 31l-17 21-10 11c-6 7-12 13-19 18 4-7 12-12 17-19l23-25 19-30Zm0 47 6-32-1 15c0 3 3 5 5 7l-2 2c-3 0-5 2-6 5 8-1 15-7 23-10l18-6-21 10c-8 3-14 8-22 9Zm61-24c7-1 15-3 21 2l-6 3 2-4-17-1Zm-26 38c10-11 21-22 34-29-9 8-18 15-26 24-6 6-13 13-16 21-2 3-3 7-3 10 0 2 2 3 4 4 8 2 16 2 24 1 14 0 28-2 41-7 6-2 11-7 17-10-1 5-3 11-6 16-3 4-5 10-9 13-7 6-16 11-26 13h-18c-4 0-8 3-12 4l8 23c3 6 8 12 13 17 2 2 2 7 3 10l6-2 1 4c17 2 35 2 50-7 6-4 12-7 15-13l3-1c-1 5-1 9-3 13-3 10-10 17-16 25-5 8-15 11-22 17-5 5-12 6-18 10l-22 10 6 10c5 6 7 14 11 22 2 4 1 9 2 14l4 18c2 8 0 16-1 24l-2-30c-2-14-6-27-11-40-3-7-8-12-12-19 21-9 41-18 58-32 11-9 19-21 21-35l-8 5a71 71 0 0 1-84-2c-3-2-4-5-6-8l11 8 14 6c-4-6-9-11-12-18l-8-17c-3-6-4-13-4-19h13c10 1 20 1 29-3 14-5 25-17 29-31-9 4-18 10-28 12s-21 3-32 3c-7 0-14 0-21-2-4-1-5-5-4-9 1-9 8-16 13-23Zm-727-14c7 0 13-2 20-3l10 1-22 2-23 2 15-2Zm121-2c6-1 13-1 19 1-6 1-13 0-19-1Zm-156 9c6-3 13-4 19-4-6 2-12 4-19 4Zm-19 7 10-3-9 5A286 286 0 0 0 59 242c-4 9-10 17-12 27a126 126 0 0 0 1 67l7 28 8 21 5 16c1 5 5 9 7 15l21 51c5 7 8 16 10 24l5 25 4 18c0 11-1 23-7 33-5 8-15 13-25 12-7 0-14-3-21-6 2 11 9 20 18 26 5 5 12 8 18 11-7 4-15 5-22 4l7 15c-2-2-5-3-6-6-2-3-3-7-3-11l5-1 3-8-11-9c-5-6-10-13-12-21l3-4c7 4 14 8 22 8s16-4 21-10c3-3 3-7 4-11 4-12 3-25 1-38-1-9-3-18-7-26-3-8-4-16-8-24l-21-48c-1-6-5-11-7-17-3-9-6-19-11-28l-5-18-5 2v-3h5c-7-15-7-32-11-48-1-7 0-14 1-21a153 153 0 0 1 20-56l7-13c7-8 12-17 18-25 11-12 21-24 34-35 11-9 22-19 35-26 7-7 17-10 26-15M83 607l-1 4 4-1c-1-1-1-3-3-3Zm762-457c3-10 7-19 13-27 2 4 5 7 9 9l-6 6c-5 4-10 9-16 12m14-22-2 6 5-2c-1-2-1-4-3-4ZM584 283l4 1c5 7 8 14 11 22 6 20 5 42-1 62-4 13-8 25-16 36-4 4-7 9-12 10 11-13 19-29 23-46 4-12 6-26 5-39 0-16-4-32-14-46Zm412 91c6 5 6 13 7 19l2-1 1-15c1 5 2 11 1 17-1 4-2 8 0 12 5 10 14 18 22 26l-14-10c-6-8-12-17-15-26-2-7-4-14-4-22Zm35 60 21 8 21 6c-4 0-9 0-13-2-10-3-21-5-29-12Zm43 14 5 1-5 2v-3Zm-57 27c5-2 11-2 16-3l-5 6-4-4v14l-1-10-8-1 2-2Zm7 18v13c-1 11 0 23-3 34-1-9 1-18 1-27l2-20Zm-23 50c7 10 5 22 11 31l4-6-5 15c-5-8-6-18-9-27l-1-13Zm38 77 11 1c-1 3-3 7-6 8-4 3-9 3-14 3-7-1-14 0-20-2-3-1-5-4-7-7l11 4c5 2 11 2 16 2l10-1c4-1 6-4 8-6l-9-2ZM348 786l30-10-8 6-15 3-33 11c-8 4-18 5-26 8l-26 8c-25 9-50 15-74 22l-47 12c-3 1-4 3-5 5l-1 1-2-4-7 2-5 5-7-2c-10 0-19 4-28 5l-35 3c-8 1-15-1-23-1-1 2-1 6-4 6-4 0-4-5-5-8l-4 4c-1-2-1-5-3-6-4-2-8-3-11-7-5-3-4-10-8-14l4 1c1 5 2 10 5 13 7 5 16 8 24 9 9 0 17 2 25 1l34-3 19-3 48-11c16-5 33-8 50-14 28-7 56-16 83-25l24-7 31-10Z"/>
  </g>
  <g fill="#3c4441">
    <path d="m868 43 13-21c2 8 1 17 1 25-1 17-6 35-13 51l-10 22-1 3c-6 8-10 17-13 27 6-3 11-8 16-12l6-6 1-2c7-5 13-11 19-18l10-11 17-21c8-10 13-21 21-31l-1 18-1 4-6 32c8-1 14-6 22-9l21-10c5-3 12-4 18-5l17 1-2 4-7 4c-13 7-24 18-34 29-5 7-12 14-13 23-1 4 0 8 4 9a151 151 0 0 0 53-1c10-2 19-8 28-12-4 14-15 26-29 31-9 4-19 4-29 3h-13c0 6 1 13 4 19l8 17c3 7 8 12 12 18l-14-6-11-8c2 3 3 6 6 8a71 71 0 0 0 92-3c-2 14-10 26-21 35-17 14-37 23-58 32 4 7 9 12 12 19 5 13 9 26 11 40l2 30v6l-1 15-2 1c-1-6-1-14-7-19 0 8 2 15 4 22 3 9 9 18 15 26l14 10 2 2c8 7 19 9 29 12 4 2 9 2 13 2h1v3l-9 8c-9 7-20 12-32 13-5 1-11 1-16 3l-2 2 8 1 1 10v5l-2 20c0 9-2 18-1 27l-5 28-4 6c-6-9-4-21-11-31l1 13c3 9 4 19 9 27l10 20c5 7 10 13 18 17l9 2c-2 2-4 5-8 6l-10 1c-5 0-11 0-16-2l-11-4-4-5c-8-10-14-21-20-33-5-8-7-18-12-26-1 5-1 11-3 16l-7-19c-2-7-2-15-5-22-2 8-1 15-2 23l-3 32h-2l-7-23c-7-25-16-49-24-73l-7-19c-3 10-6 19-11 27v-31c1-11 1-23 3-34l6-28c3 7 3 14 5 21l14 51c3 7 4 14 9 21l3-18 7 20c4 7 7 14 13 20-1-16-7-32-7-48l5 7c6 11 18 18 28 25 6-16 5-34 3-50-1-9-5-17-6-25l27 9-7-7c-9-9-15-20-21-31-6-15-7-31-9-46-2-18-4-37-8-55-5-18-12-36-24-52 16 4 33 4 48-1l-10-5c-6-2-11-6-16-11l-14-12c-13-14-25-29-36-44 12-2 24-3 36-7 10-4 20-9 29-15l-16 1-18-1c0-16 7-32 17-44l14-17c-9 1-17 7-25 12-7 4-14 10-20 16-2-4-5-7-5-12l-3-15-10 17c-8 13-18 24-30 33a97 97 0 0 1-49 20l8-23c6-17 10-34 12-52-11 6-23 8-34 11l-38 7v-3a216 216 0 0 0 91-62Zm-491 60c11 0 21 2 32 3l29 5c-9 4-19 0-28 0h16c-16-4-33-4-49-8ZM117 503c7 3 15-3 22 1l4 9 4-3c2 8 1 16 2 24 0 8-1 15-3 22-1 3-3 4-5 6-7 4-12 10-20 13l-14 7c5 8 14 11 21 17l-16 10c5 7 13 10 20 14l-10 14c-1 3-3 6-6 8-2 1-5 0-7-1l-20-10-6-5-7-15c7 1 15 0 22-4-6-3-13-6-18-11-9-6-16-15-18-26 7 3 14 6 21 6 10 1 20-4 25-12 6-10 7-22 7-33v-13c0-3 2-5 3-7-2-2-4-5-4-8h3v-3Z"/>
    <path d="M83 607c2 0 2 2 3 3l-4 1 1-4Zm3 58c7-6 15-10 24-11-2 6-6 11-10 16-2 3-3 6-7 8l-10 5c-7 3-12 9-18 13l6-14 1-1 14-16Z"/>
  </g>
  <path fill="#5a5d53" d="m265 101 12-2h66l13 2c6 1 13 2 19 1l2 1c16 4 33 4 49 8h-16c-24-2-49-3-73-3-21 0-42 0-63 3a202 202 0 0 0-109 46c-8 6-14 15-21 22-20 28-32 61-39 95-2 8-3 16-7 24l-7 12c-10 18-17 37-20 58-2 10-1 20-1 30l-7-13-8-21-7-28-3-12c-3-18-3-37 2-55 2-10 8-18 12-28a286 286 0 0 1 123-122l9-5 9-4c7 0 13-2 19-4l1-1 23-2 22-2Zm322 435c17 0 34-2 51-1l38 3c11 2 23 4 34 8 7 2 14 3 20 7l-11 1c-16 1-32 7-46 16-13 9-24 21-34 33-5 5-8 12-13 16l-1-3c0-5 0-10-2-14-5-11-16-18-27-22-17-6-35-8-53-8a349 349 0 0 0-118 21l-12 4c4-5 10-8 16-12 31-20 66-31 101-39 19-4 38-8 57-10Zm-346 27c20-6 41-11 62-12l-11 9c13 1 26-1 38 1 9 1 17 5 22 12 3 4 2 9 0 13a253 253 0 0 1-128 118h-3c2-10 5-21 2-31-2-9-9-16-17-19-17-6-36-4-54 0-11 3-21 7-31 12l-17 8 8-13 25-35 19-25c5-5 11-7 16-10 23-10 46-20 69-28Zm19 161 21-7c-5 6-11 10-17 15-19 17-41 31-64 43l-2-1c4-12 10-23 12-35 17-5 34-9 50-15Z"/>
  <path fill="#e2d5bf" d="M859 128c2 0 2 2 3 4l-5 2 2-6Zm-168 62c4 1 9 2 11 6 2 5 1 12-4 16-5 6-12 8-19 12v-5l4-16c1-5 5-9 8-13Zm-200 45a128 128 0 0 1 90 10c-22 3-45-1-67 4-6 1-12 4-17 7 6 3 13 5 18 9 10 10 16 23 18 37a75 75 0 0 1-44 80c-11 4-23 3-34 0-13-5-24-15-30-28l-7-16c-3 7-6 15-7 23-1 12-2 23-1 34-3-5-4-12-6-19-2-9-2-19-2-29-1-32 14-64 38-86 5-5 13-9 20-13 9-6 20-10 31-13Zm244 23 3-1-2 20-4 12-1-7 2-19 2-5Zm36 16c1-5 3-10 6-13 3 7 2 15 0 23-1 5-2 11-8 12-1-7-1-15 2-22Zm-76 75c0-2 2-3 3-3 1 10 1 21-1 32l-1-1-1-28Zm11 60c3 1 6 0 8 2 5 5 10 11 11 19a478 478 0 0 1-3 25l-4-14c-1-6 0-12-4-17-2-5-8-9-8-15ZM87 686l3-1-1 2-3 1 1-2ZM0 825c2 3 1 6 0 9v-9Z"/>
  <g fill="#c69946">
    <path d="M691 190c5-3 11-5 17-4l30 6 51 12c21 7 43 11 64 20 5 2 9 7 12 12 4 8 3 17 2 25l-7 37-3 24-7 37c-2 11-3 23-6 34l-14 79-7 38-20-7c-1-7 2-13 3-20l13-68c3-17 8-35 10-53 3-25 6-50 7-75v-29c0-8-8-13-15-15-5-1-11 0-16 1l-10-11c-9-4-19-3-27 0-4-4-7-10-13-12-7-3-15-1-22 0-3-3-6-7-11-8-6-1-11 3-14 7-8 11-12 25-15 39l-4 27-1 25c0 3-3 4-5 6-3 3-5 7-6 11l-1 20-8 57-6 27c-2 10-5 20-4 31l-24-3 1-11 2 2c0-11 3-21 5-31l26-138 5-32c3-10 4-21 6-31v5c7-4 14-6 19-12 5-4 6-11 4-16-2-4-7-5-11-6Z"/>
    <path d="M713 223c2-3 4-5 7-6 2 0 5 2 6 4l-2 15-4 29c-3 19-6 38-11 56l-7-6-9-2c1-12 0-24 2-35 1-10 2-20 6-30 3-8 5-18 12-25Zm22 4c1-2 3-2 5-2 6-1 14-1 18 4 1 9-1 17-2 26l-9 55-5 28c-6 1-12 0-18-1l1-11 4-34 2-10 1 7 4-12 2-20-3 1-2 5 1-28 1-8Zm33 11c7-2 13-4 20-2 3 0 6 3 8 5v12l-6 32-7 32-8 30h-3l-15-5c2-22 7-44 11-66v-38m3 36c-3 7-3 15-2 22 6-1 7-7 8-12 2-8 3-16 0-23-3 3-5 8-6 13Zm-257-25c22-5 45-1 67-4l6 3c7 5 14 9 20 15l11 11 13 21c3 6 5 12 6 19 1 10 4 20 2 30-10-22-24-44-44-58-4-4-9-7-14-8l3 5c10 14 14 30 14 46 1 13-1 27-5 39-4 17-12 33-23 46l-17 14c-13 10-28 17-42 25l-19 1c-9 0-18 2-26-1-15-4-27-15-37-26a114 114 0 0 1-19-32c-1-11 0-22 1-34 1-8 4-16 7-23l7 16c6 13 17 23 30 28 11 3 23 4 34 0 12-4 22-13 30-23 12-16 17-37 14-57-2-14-8-27-18-37-5-4-12-6-18-9 5-3 11-6 17-7Z"/>
    <path d="M804 250c6-3 14-3 20-1 3 2 7 4 7 8v18c1 19-2 37-4 56l-4 37-8 47c-2 12-6 23-7 35l-6 28c-2 7-2 15-5 23l-23-8c-14-4-28-10-42-13l2-17c3-11 1-23 2-35 0-3 3-4 5-6 18-8 35-18 55-21 4-1 10-1 11-6 3-9-2-18-3-27 0-1 0-3-2-4-3-4-8-6-13-9 2-16 5-31 9-47 6-19 6-38 6-58Zm-122 79c0-5 4-10 9-11 6-1 12 2 14 7v11c-2 20 1 40 1 60 6 3 13 6 17 12 5 8 7 18 7 28 1 14-1 29-3 43l-16-4-23-6c-9-1-18-2-26-5 1-15 3-29 7-44 1-8 5-16 5-25l5-30 3-36m13 20 1 28 1 1c2-11 2-22 1-32-1 0-3 1-3 3m11 60c0 6 6 10 8 15 4 5 3 11 4 17l4 14c2-1 3-2 3-4v-21c-1-8-6-14-11-19-2-2-5-1-8-2Zm-278 54 50-4h77l37 2c9 1 19 1 28 3l25 3c0 12-4 24-3 37-7 1-14-1-21-1l-39-4c-35-2-69-1-104-1l-54 4c-6 0-12 2-19 1v-34c0-1-1-4 1-4l22-2Zm-77 12c16-3 32-7 49-8v38l-33 6-36 8c-10 1-20 5-29 8-18 5-36 11-53 18l-32 14-41 22-19 12c-2-7-2-15-2-23 0-4-1-9 3-11 6-5 13-8 20-12l21-13c14-7 27-15 42-21l14-7 21-9 25-8c10-3 21-7 32-9l-2-1c7 0 13-3 20-4Zm299-6 3-1 39 7 22 5 53 16c15 4 30 9 44 15l48 19c8 2 15 5 23 9 2 0 1 3 1 5v25l-21-8-38-14c-27-10-56-16-84-24l-52-11-42-6c0-12 2-24 4-37Zm252 48c2-2 6-2 8-1a69 69 0 0 0-9 56l1-23c0-11 6-22 11-31l5 6c4 14 4 28 1 42-1 8-4 16-10 21-3 4-8 4-12 2-7-5-9-14-10-22-1-13-1-26 5-38 2-5 5-10 10-12Zm-760 48 8-1c-1 11 1 22 2 32 0 4-3 6-6 8-5-12-5-26-4-39Zm-8 7 3 1v16c-4 0-4-5-4-8-1-3 0-6 1-9Zm0 21h4l4 14-1 7h-4c-3-7-4-14-3-21Z"/>
  </g>
  <path fill="#896333" d="M726 221c2 3 5 6 4 9l-8 82-4 26h-8c1-6 0-11-1-17 5-18 8-37 11-56l4-29 2-15Zm32 8c2 3 5 6 5 9v14l-1 31-10 59c-9-3-19-3-29-3 0-5 0-9 2-13l-1 11c6 1 12 2 18 1l5-28 9-55c1-9 3-17 2-26Zm38 12c2 2 4 4 4 7l-1 26-3 21-7 32-4 25-13-5h3l8-30 7-32 6-32v-12Zm-215 37c5 1 10 4 14 8 20 14 34 36 44 58 2-10-1-20-2-30 5 14 4 30 3 45-1 14-5 27-10 39-10 24-29 44-52 56h-41l-26-1c14-8 29-15 42-25l17-14c5-1 8-6 12-10 8-11 12-23 16-36 6-20 7-42 1-62-3-8-6-15-11-22l-4-1-3-5Zm129 66c12 0 23-1 35 1 18 3 36 10 52 20 2 2 4 3 7 3 1 9 6 18 3 27-1 5-7 5-11 6-20 3-37 13-55 21-2 2-5 3-5 6-1 12 1 24-2 35 0-9 2-19 1-28-1-7-1-14-3-20l-8-14-12-8c-2-17-3-33-2-49Z"/>
  <g fill="#2f2e24">
    <path d="M168 247c10-2 22 0 32 4 14 5 26 13 39 21a300 300 0 0 1 76 68c6 7 11 15 14 24 4 10 1 22-4 31a259 259 0 0 1-49 59c-17 16-36 30-57 41-7 3-15 4-23 3-7-1-14-5-20-9l-21-16-14-13c1 8 5 15 7 22 2 17 5 35 1 52-1-8 0-16-2-24l-4 3-4-9c-7-4-15 2-22-1v3h-3c0 3 2 6 4 8-1 2-3 4-3 7v13l-4-18-5-25c-2-8-5-17-10-24l-21-51c-2-6-6-10-7-15l-5-16 7 13c0-10-1-20 1-30 3-21 10-40 20-58l7-12v16c5-4 9-10 13-15 10-14 20-28 32-40 7-6 15-11 25-12Zm664 14 1 26-1-26Zm254 186c-3 0-3-4 0-4v4ZM730 553c1-1 3 0 4 1l19 10c9 5 17 11 24 18l5 6-91 44-63 28-34 14 21-26 8-19c2-4 1-9 2-13l1 3c5-4 8-11 13-16 10-12 21-24 34-33 14-9 30-15 46-16l11-1Z"/>
    <path d="M835 563c3-2 6-4 9-3l18 6-7 7-26 16-27 14c-8 4-15 9-23 12l-35 17-18 9-21 9-20 8-14 6-12 7-10 4c-6 3-14 3-20 6-8 5-17 7-26 11l-22 9-34 13-26 10-17 7-27 10-35 13-64 22-30 10-31 10-24 7c-27 9-55 18-83 25-17 6-34 9-50 14l-48 11-19 3-34 3c-8 1-16-1-25-1-8-1-17-4-24-9-3-3-4-8-5-13l-4-1H0v-1c1-3 2-6 0-9v-1l6 1c1-6 4-11 7-16l8 16c5 7 13 11 21 13 12 2 24 3 36 2l24-3a1592 1592 0 0 0 225-58 3605 3605 0 0 0 469-192c13-8 27-15 39-24Zm-720 20 12-5 2 14c-6-1-11-5-14-9Zm4 28c1-4 6-5 9-7l7 15c-6-2-11-4-16-8Z"/>
    <path d="M152 654c18-4 37-6 54 0 8 3 15 10 17 19 3 10 0 21-2 31h3l-11 5c-33 15-67 26-101 37-7 2-15 3-21 7 7 2 13 0 20 0a540 540 0 0 0 99-14c-2 12-8 23-12 35l2 1-23 11-99 46c-10 4-20 3-31 1-9-1-16-6-24-11-6-6-8-17-2-25l20-30c1-4 3-7 6-9 4-6 7-13 12-19l15-23c5-7 8-16 16-22 6-6 9-13 14-20l17-8c10-5 20-9 31-12Z"/>
  </g>
</svg>
