<svg xmlns="http://www.w3.org/2000/svg" viewBox="0 0 950 300">
  <defs>
    <radialGradient id="a" cx="250.6" cy="230.1" r="250" gradientTransform="matrix(.6 0 0 .6 334.7 9.7)" gradientUnits="userSpaceOnUse" spreadMethod="pad">
      <stop offset="0" stop-color="#591c87"/>
      <stop offset="1" stop-color="#210b33"/>
    </radialGradient>
  </defs>
  <path fill="url(#a)" d="M459.8 9.7c4.7-.4 8.9 2.4 13 2.9 6.2 1 10.9-3.3 17-2.9 4.6 1 8 4.3 12.6 5.7 5.2 1.4 10.3-1 16 .5 4.6 1.4 7.4 6.6 12.1 8.4 4.7 2 9.9 1 14 3.3 5.2 2.4 6.6 8.5 11.3 11.8 4.2 2.4 9.4 2.4 12.7 5.7 3.7 2.8 4.2 8 7 11.7 3.3 4.7 9.8 5.7 13.1 10.4 2.8 4.2 1.9 9.4 4.7 13.6 2.3 4.7 7.5 7 9.8 11.8 2.4 4.2.5 9.4 1.9 14.1 1.4 5.2 6 8.5 7.5 13.7 1 5.1-1.9 9.9-1.4 14.6.5 5.1 4.2 9.8 4.2 15 0 5.2-3.7 9.4-4.2 14.6-.5 5.2 2.3 9.4 1.4 14.6-1.4 5.2-5.6 8.5-7.5 13.2-1.4 5.2.5 10.3-1.9 15-2.3 4.8-7.5 7.1-9.8 11.4-2.8 4.2-1.9 10.3-4.7 14.5-3.3 3.8-8.4 4.8-11.7 8.5-3.8 3.8-4.2 9.4-8 13.2-3.7 2.8-8.4 3.3-12.6 5.2-5.2 3.3-6.6 9.9-12.2 12.7-4.2 1.9-9.4 1-14 2.8-4.3 2.4-7 7-11.8 8.5-4.7 1.4-9.8-.5-14.5 0-5.1 1-8.9 5.6-14 6.1-5.2 0-9.9-3.3-15.5-3.3-4.7.5-8.4 3.3-13.1 3.3-5.6-.5-9.4-5.2-14.5-6.1-5.2-.5-10.3 1.4-15 0-4.7-1.9-7.5-6.6-12.2-8.5-4.7-2.3-10.3-1-14.5-3.3-4.7-2.8-6.6-8.5-10.8-11.7-4.2-2.9-9.4-2.4-13.1-6.2-4.2-3.3-4.2-9.4-8-13.1-3.7-3.3-8.9-4.8-11.7-8.5-3.3-4.3-2.3-10-4.7-14.1-2.8-4.8-8-6.6-10.3-11.3-1.9-4.8 0-10-1.4-14.6-1.4-4.7-6-8-7.5-13.2-1-5.2 1.9-9.9 1.4-15-.5-5.3-4.2-9.5-4.2-14.7 0-5.2 3.7-9 4.2-14 1-5.3-2.3-10.5-1-15.6 1.5-4.7 5.7-7.6 7.1-12.3 1.4-5.1-.5-10.8 1.9-15.5 2.3-4.2 7.5-6.6 9.8-10.8 2.8-4.3 1.9-10 4.7-14.6 3.3-3.8 8.9-5.2 12.2-9 3.3-3.7 3.7-9.4 7.5-12.7 3.7-2.8 8.4-3.3 12.6-5.6 5.2-2.9 6.6-9 11.3-12.3 4.6-2.3 9.8-1 14.5-2.8 4.7-1.9 7.5-7 12.2-9 5.6-1.3 10.7 1.5 16.4 0 4.2-1.3 7.5-5.1 11.7-6m9.8 54c-6 5-11.2 11.1-15 18a28 28 0 0 0-3.7 12.2 24.4 24.4 0 0 0 22 25.9c13.3.8 24.8-9.3 25.8-22.6.1-5.8-1.5-11.6-4.7-16.5-3.4-5.8-7.7-11-12.7-15.5a19.7 19.7 0 0 0-6.5-4.2c-2 .4-3.3 1.8-5.2 2.8m-61.4 73.9v58.8c0 2-.4 4.3-2.3 5.2-2.3 1.9-6.6.5-7-2.8l-.5-9h-9.8l.4 9.5a15 15 0 0 0 29.5-2.4v-59.8l-10.3.5m29 .5c-5.8 1.6-10 7-10.2 13.1v46.2c-.3 3.5.7 7 2.8 9.9a14 14 0 0 0 24.8-5.7l.5-8v-41c0-2.7-.6-5.5-1.9-8a14.5 14.5 0 0 0-16-7m26.8 0v9.9h10.3v1.4l-10.8 63.5h25.8v-9.8h-14l7.4-43.4 3.3-21.6h-22m34.2 0v9.9h10.3l-1 7-6 36.8-3.3 21.1H524v-9.8h-14.1l1-7.1 7-40 2.8-18h-22.5m44.5.6a14 14 0 0 0-10.3 13.1V198a15 15 0 0 0 5.1 11.3c4.7 4.3 12.7 4.7 17.4.5 3.6-2.8 5.7-7.2 5.6-11.8v-44.2c0-3.3 0-6.6-1.9-9a14 14 0 0 0-16-6.5M437.9 221v19.3h6V238l-3.7-.5V221h-2.8m71.2.5v1.9l2.3.4c-.4 5.7-1.8 10.9-2.8 16.5h6.6V238l-3.3-.5 2.3-16H508m10.3-.5v19.3h6.1V238l-3.7-.5V221h-2.4m9.9.5v18.8h6V238l-3.7-.5c-.2-2.4-.2-4.7 0-7l3.3-.5v-2.4h-3.3v-3.8h3.8v-2.3h-6.1m-111.5 2.3-.5 10c0 1.8-.5 3.7 1 5.1a3.7 3.7 0 0 0 5.1 0c1-1 1-2.8 1-4.2h-2l-.9 2.8-1.4-.5v-13h1l1.4 2h1.8c0-1.5 0-3-.9-3.8-1.9-1.5-5.6-.5-6 1.8m12.6-2.3c-2.4 1.4-2 4.2-2 6.1v9.9c.6 2.3 3.8 3.3 5.7 1.9 1.4-1.4 1.4-3.3 1.4-5.2l-.5-10.4c0-2.3-2.8-3.3-4.6-2.3m20.1 0c-1.4 1-1.9 2.8-1.9 4.2v10.8c0 1.7 1.2 3.1 2.8 3.3 2 .5 3.8-.4 4.3-2.3v-14.1c-1-2-3.3-2.9-5.2-2m8.9 0v19h2.3l.5-4.3 1.9 4.2h2.3l-1.4-4.2c.5-1.4 1.4-2.4 1.4-3.8v-7c0-1.5-.4-2.9-1.4-3.8H458m18.3 0v18.8h2.3l.5-3.8c1.4-.4 3.3-.4 3.7-2.3 1-2.4.5-5.2.5-7.5 0-2 0-3.8-1.4-4.7-1.4-1-3.8-1-5.6-.5m10.7 0v12.2c0 1.9-.4 4.3 1.5 5.2 1.4 1.9 5.1 1 5.6-1.4l.4-4.7v-11.3h-2.3v15c0 1.5-2.8 1.5-2.8 0v-15H487m11.3 0v1.9l2.3.4-2.3 16h6.5v-2.3H501l2.8-16h-5.6ZM468.7 67.2l6-4.3a52.2 52.2 0 0 1 21.1 26.4 22 22 0 1 1-39.8-5.2 58.8 58.8 0 0 1 13.1-17m6.1 0c0 2 1.4 2.4 2.4 3.8 2.3 1.5 3.7 3.8 5.6 5.7.5.5 1.4 1 1.9.5 0-2-1.4-2.9-2.4-4.3l-6.5-6-1 .4M487 79.9l-.4 1a9.8 9.8 0 0 0 2.8 4.6h1.4c0-2.3-1.4-3.7-2.8-5.6h-1m-23.8 11.8c-1 .9-1 2.8-.5 4.2 0 1 .5 1.9 1.4 1.9 1.9 0 2.3-2.4 2.3-3.8s-1.4-3.3-3.2-2.3m21 0c-1.4 1.4-1.4 4.7.5 5.6 1.4 1 2.8-1.4 2.8-2.8s-1.4-3.8-3.3-2.8m-20.6 8.4c-1.4 0-1.9 2-1 2.9 1.8 4.2 5.8 7.1 10.4 7.5 4.7.5 9.8-1 12.6-4.7 1-1.4 2-2.8 2-4.7-1-1.4-2.9-1.4-4.3-1.4l-19.7.4Zm-24.3 47.6c2.8-1 6 1.4 5.6 4.2l.5 45.2c0 1.4 0 3.3-1.5 4.2-1.4 1.4-3.7 2-5.1.5-1.4-1-1.9-2.8-1.9-4.2v-45.2c0-1.9 1-3.8 2.4-4.7Zm105.8 0c2-.5 3.8 0 4.7 1.9 1 .9 1 1.8 1 3.3v44.7c0 1.4 0 2.8-1.4 3.7a4.2 4.2 0 0 1-6.1 0l-.5-4.2v-44.7c-.5-1.9.5-4.3 2.3-4.7Zm-115.2 76.2h1.4l.5 7-.5 6.7h-1.4c-1-2.4-.5-5.2-.5-7.5 0-2-.4-4.3.5-6.2Zm20.1 0h1.4c1 2 .5 4.3.5 6.6 0 2.4.5 4.7-.5 7H450V224Zm10.3 0h2v10h-2v-10Zm18.3 0h1.9v10h-1.9v-10Z"/>
  <path fill="#eee" d="M469.5 63.7a63 63 0 0 0-15 17.9c-1.8 3.8-3.7 8-3.7 12.2-.8 13.2 9 24.7 22 26 13.3.7 24.8-9.3 25.8-22.7.1-5.8-1.5-11.6-4.7-16.4a63.9 63.9 0 0 0-12.7-15.6 19.6 19.6 0 0 0-6.5-4.2c-1.9.5-3.3 1.9-5.2 2.8Zm-61.4 74v58.8c0 1.8-.4 4.2-2.3 5.1-2.3 2-6.6.5-7-2.8l-.5-9h-9.8l.4 9.5a15 15 0 0 0 29.6-2.4v-59.8l-10.4.5Zm29 .4c-5.8 1.6-10 7-10.2 13.2v46.1c-.3 3.5.7 7 2.8 9.9a14 14 0 0 0 24.8-5.7l.5-8v-41c0-2.7-.6-5.5-1.9-8a14.5 14.5 0 0 0-16-7v.5Zm26.8-.5v9.9h10.3v1.4l-10.8 63.6h25.8v-10h-14l7.4-43.2 3.3-21.7h-22Zm34.2 0v9.9h10.3l-1 7-6 36.8-3.3 21.2h25.8v-10h-14l.8-7 7-40 2.9-17.9H498Zm44.5.5a14 14 0 0 0-10.3 13.2v46.6a15 15 0 0 0 5.1 11.3c4.7 4.2 12.7 4.7 17.4.4 3.6-2.8 5.7-7.1 5.6-11.7v-44.3c0-3.3 0-6.6-1.9-9a14 14 0 0 0-15.9-6.5Zm-105 82.8v19.3h6.2V238l-3.8-.5V221h-2.3Zm70.8.5v1.9l2.3.5c-.4 5.6-1.8 10.8-2.8 16.4h6.6V238l-3.3-.5 2.4-16h-5.7.5Zm9.8-.5v19.3h6.1V238l-3.7-.5V221h-2.4Zm9.9.5v18.8h6V238l-3.7-.5a41 41 0 0 1 0-7l3.3-.5v-2.4h-3.3v-3.7h3.8v-2.4H528Zm-111.5 2.4-.5 9.8c0 2-.5 3.8 1 5.2a3.7 3.7 0 0 0 5.1 0c1-1 1-2.8 1-4.2h-2l-.9 2.8-1.4-.5v-13.1h1l1.4 1.8h1.8c0-1.4 0-2.8-.9-3.7-1.9-1.4-5.6-.5-6 1.9h.4Zm12.2-2.4c-2.4 1.4-2 4.2-2 6.1v10c.6 2.3 3.8 3.2 5.7 1.8 1.4-1.4 1.4-3.3 1.4-5.2l-.5-10.3c0-2.4-2.8-3.3-4.6-2.4Zm20.1 0c-1.4 1-1.9 2.8-1.9 4.2v10.9c0 1.6 1.2 3 2.8 3.3 2 .4 3.8-.5 4.3-2.4v-14.1c-1-1.9-3.3-2.8-5.2-1.9Zm9 0v18.8h2.2l.5-4.2 1.9 4.2h2.3l-1.4-4.2c.5-1.4 1.4-2.4 1.4-3.8v-7c0-1.4-.4-2.8-1.4-3.8h-5.6Zm18.2 0v18.8h2.3l.5-3.7c1.4-.5 3.3-.5 3.7-2.4 1-2.3.5-5.2.5-7.5 0-1.9 0-3.8-1.4-4.7-1.4-1-3.7-1-5.6-.5Zm10.8 0v12.2c0 2-.5 4.3 1.4 5.2 1.4 2 5.1 1 5.6-1.4l.4-4.7v-11.3H492v15c0 1.5-2.8 1.5-2.8 0v-15h-2.3Zm11.2 0v1.9l2.3.5-2.3 16h6.6v-2.4h-3.8l2.8-16h-5.6ZM468.6 67l6-4.2A52.2 52.2 0 0 1 495.9 89a22 22 0 1 1-39.9-5 58.8 58.8 0 0 1 13-17h-.4Zm6.5 0c0 1.9 1.4 2.4 2.4 3.8 2.3 1.4 3.7 3.7 5.6 5.6.5.5 1.4 1 1.9.5 0-1.9-1.4-2.8-2.4-4.2l-6.5-6.2-1 .5ZM487 79.7l-.5 1a9.8 9.8 0 0 0 2.8 4.7h1.4c0-2.4-1.4-3.8-2.8-5.7h-1Zm-24 11.8c-.9 1-.9 2.8-.4 4.2 0 1 .5 1.9 1.4 1.9 1.9 0 2.3-2.3 2.3-3.8 0-1.4-1.4-3.3-3.2-2.3Zm21.1 0c-1.4 1.4-1.4 4.7.5 5.6 1.4 1 2.8-1.4 2.8-2.8s-1.4-3.8-3.3-2.8Zm-20.6 8.5c-1.4 0-1.8 1.8-1 2.8 1.8 4.2 5.8 7.2 10.4 7.5 4.7.5 9.8-1 12.6-4.7 1-1.4 2-2.8 2-4.7-1-1.4-2.9-1.4-4.3-1.4l-19.7.5Zm-24.3 47.5c2.8-1 6 1.4 5.6 4.2l.5 45.2c0 1.4 0 3.3-1.4 4.3-1.5 1.4-3.8 1.9-5.2.4-1.4-.9-1.9-2.8-1.9-4.2v-45.2c0-1.9 1-3.8 2.4-4.7Zm105.8 0c2-.5 3.8 0 4.7 1.9 1 1 1 1.9 1 3.3v44.7c0 1.4 0 2.8-1.4 3.8a4.2 4.2 0 0 1-6.1 0l-.5-4.3v-44.7c-.5-1.9.5-4.2 2.3-4.7Zm-115.2 76.3h1.4l.5 7-.5 6.6h-1.4c-1-2.3-.5-5.2-.5-7.5 0-1.9-.4-4.3.5-6.1Zm20.1 0h1.4c1 1.8.5 4.2.5 6.6 0 2.3.5 4.7-.5 7h-1.4v-13.6Zm10.3 0h2v9.8h-2v-9.8Zm18.3 0h1.9v9.8h-1.9v-9.8Z"/>
</svg>