<svg xmlns="http://www.w3.org/2000/svg" viewBox="0 0 500 500">
  <path d="M223 0c8-1 16 4 23 5 11 2 19-6 30-5 9 2 14 8 23 10 9 3 18-2 28 1 9 3 14 12 22 15s17 2 25 6c9 4 12 15 20 21 8 4 17 4 23 10 6 5 7 14 12 21 6 8 18 10 23 18s4 17 9 25c4 8 13 12 17 21 4 7 1 16 4 25 2 9 10 15 13 24 2 9-3 18-3 26 1 9 8 18 8 27s-7 17-8 26c0 9 5 17 3 26-3 9-10 15-13 24s0 18-4 26c-4 9-13 13-17 21-5 7-4 18-9 26-5 6-15 8-20 15-7 6-8 16-15 23-6 5-15 6-22 9-9 6-12 18-22 23-7 3-17 2-25 5-7 4-12 13-21 15-8 3-17-1-26 0-9 2-16 10-25 11-9 0-17-6-27-6-9 1-15 6-24 6-10-1-16-9-26-11-9-1-18 3-26 0-9-3-14-12-22-15-8-4-18-2-26-6-8-5-11-15-19-21-8-5-17-4-23-11-8-6-8-17-15-23-6-6-15-9-20-15-6-8-5-18-9-25-5-9-14-12-18-21-3-8 0-17-3-26-2-8-10-14-13-23-2-9 3-18 3-27-1-9-8-17-8-26s7-16 8-25-5-19-2-28c2-8 10-13 12-22 3-9 0-19 4-27s13-12 17-20c5-7 4-17 9-26 5-6 15-9 21-16 6-6 7-16 14-22 6-5 15-6 22-10 9-5 12-16 20-22 9-4 18-2 26-5s13-13 22-16c10-3 19 3 29 0 8-3 13-9 21-11m17 97c-10 8-20 19-26 31-4 7-7 15-7 22-1 24 16 44 39 46 24 2 44-16 46-40 0-10-3-21-8-29-6-11-14-20-23-28-3-3-7-6-11-7-4 0-6 3-10 5M131 228v105c0 3-1 8-4 9-4 4-12 1-13-5v-16H96l1 17a27 27 0 0 0 52-4V227l-18 1m52 1c-11 3-18 13-19 24v82c0 6 2 12 5 17a25 25 0 0 0 45-10l1-14v-73c0-5-2-10-4-14-5-10-17-15-28-13m47 0v18h19v2l-19 114h45v-18h-25l14-77 6-39h-40m61 0v18h19l-2 12-11 66-6 38h46v-18h-25l2-13 12-71 5-32h-40m80 1c-11 3-18 13-19 24v83c0 7 4 15 9 20 9 7 23 8 31 1 7-5 10-13 10-21v-79c0-6 0-12-3-16-6-10-17-15-28-12M184 377v34h10v-4l-6-1v-29h-5m127 1v3l4 1-5 29h12v-4l-6-1 4-28h-10m18-1v34h11v-4l-7-1v-29h-4m18 1v33h11v-4l-7-1v-13h6v-5h-6v-6h7v-4h-11m-199 4-1 17c0 4-1 7 2 10 2 2 7 2 9 0s2-5 2-8h-4l-1 5-3-1v-23h2l2 3h4c0-2 0-5-2-7-3-2-10 0-11 4m23-4c-4 2-4 7-4 10v18c1 4 7 6 10 3 3-2 3-5 3-9l-1-18c0-4-5-6-8-4m36 0c-3 1-4 5-4 7v19c0 3 2 6 5 6 4 1 7-1 8-4v-25c-2-3-6-5-9-3m16 0v33h4l1-7 3 7h4l-2-7 2-7v-13l-2-6h-10m32 0v33h4l1-7c3 0 6 0 7-4l1-13c0-4 0-7-3-9h-10m19 0v21c0 4-1 8 3 10 2 3 9 1 10-3l1-8v-20h-5v26c0 3-5 3-5 0v-26h-4m20 0v3l4 1-4 28h12v-4h-7l5-28h-10Zm-52-276 11-7c17 11 30 27 37 47 7 21-5 43-27 49a39 39 0 0 1-44-58c6-12 14-22 24-31m10 0c0 4 3 5 5 7l10 10c0 1 2 2 3 1 0-3-3-5-4-8l-12-10h-2m21 23-1 2 5 8h3c0-4-3-7-5-10h-2m-42 21c-2 2-2 5-1 8l2 3c4 0 5-4 5-7 0-2-3-6-6-4m37 0c-2 3-2 8 1 10s5-2 5-5c0-2-2-7-6-5m-36 15c-3 0-4 3-2 5 3 8 10 13 18 14 9 0 18-2 23-9 1-2 3-5 3-8-2-3-5-3-7-3l-35 1Zm-44 85c5-2 11 2 10 7l1 81c0 2 0 6-3 7-2 3-6 4-9 1-2-1-3-5-3-7v-81c0-3 2-6 4-8Zm189 0c3-1 6 0 8 3 2 2 2 4 2 6v80c0 2 0 5-3 6-3 4-8 4-11 0v-87c-1-3 0-7 4-8ZM169 382h3l1 12-1 12h-3v-24Zm36 0h3c2 3 1 7 1 11 0 5 1 9-1 13h-3v-24Zm19 0h3v17h-3v-17Zm32 0h4v17h-4v-17Z"/>
  <path fill="#eee" d="M240 96c-11 9-20 20-26 32-4 7-7 14-7 22-2 23 16 44 39 46 24 2 44-16 46-40 0-11-3-21-8-30-6-10-14-19-23-27-3-4-7-6-12-8-3 1-5 4-9 5ZM131 228v105c0 3-1 7-4 9-4 3-12 1-13-5l-1-16H96l1 17a27 27 0 0 0 52-4V227l-18 1Zm52 1c-11 3-18 12-19 23v82c0 7 2 13 5 18a25 25 0 0 0 45-10v-87c0-5-1-10-3-14-5-11-18-16-28-13v1Zm47-1v18h19v2l-20 113h46v-17h-25l14-77 5-39h-39Zm61 0v18h19l-2 12-11 66-6 37h46v-17h-25l2-13 12-71 5-32h-40Zm79 1c-10 3-18 12-18 23v83c0 8 3 15 9 20 9 8 23 9 31 1 7-5 10-13 10-21v-79c0-5 0-11-3-15-6-10-18-15-29-12ZM183 376v35h11v-4l-6-1v-30h-5Zm127 1v4h4l-5 30h11v-4l-5-1 4-29h-10 1Zm17-1v35h11v-4l-7-1v-30h-4Zm18 1v34h10v-4l-6-1v-13l6-1v-4h-6v-7h6v-4h-10Zm-199 4-1 18c0 3-1 7 2 9 2 3 6 3 9 0 2-1 2-5 2-7h-4l-1 5-3-1v-24h2l2 4h4c0-3 0-5-2-7-3-2-10-1-11 3h1Zm22-4c-5 3-4 8-4 11v18c1 4 7 6 10 3 3-2 3-6 3-9l-1-19c0-4-5-5-8-4Zm36 0c-3 2-4 5-4 8v19c0 3 2 6 5 6 4 1 7-1 8-4v-25c-2-4-6-5-9-4Zm15 0v34h5v-8l4 8h4l-3-8 3-6v-13c0-3-1-5-3-7h-10Zm33 0v34h4l1-7c2-1 6-1 7-4v-14c0-3 0-6-2-8-3-2-7-2-10-1Zm19 0v22c0 3-1 8 3 9 2 4 9 2 10-2v-29h-4v27c0 3-5 3-5 0v-27h-4Zm20 0v4h4l-4 29h12v-4h-7l5-29h-10Zm-52-275 10-7c18 11 31 27 38 47 6 21-6 43-27 49a39 39 0 0 1-44-59c6-11 14-21 23-30Zm11 0c0 3 3 4 4 7 5 2 7 7 10 10 1 1 3 2 4 1 0-4-3-5-4-8l-12-11-2 1Zm21 23-1 1c1 4 3 6 5 9h3c0-4-3-7-5-10h-2Zm-42 21c-2 1-2 5-1 7l2 4c4 0 4-5 4-7 0-3-2-6-5-4Zm37 0c-2 2-2 8 1 10 2 1 5-3 5-5 0-3-3-7-6-5Zm-37 15c-2 0-3 3-1 5 3 7 10 13 18 13 8 1 18-1 23-8 1-3 3-5 3-8-2-3-5-3-8-3l-35 1Zm-43 85c5-2 11 2 10 7l1 81c0 2 0 5-3 7-2 3-6 4-9 1-2-2-3-5-3-8v-80c0-3 1-7 4-8Zm189 0c3-1 6 0 8 3 2 2 2 3 2 6v79c0 3 0 5-3 7-3 3-8 3-11 0l-1-7v-80c0-3 1-8 5-8ZM169 381h3l1 13-1 12h-3l-1-14 1-11Zm36 0h3l1 12-1 13h-3v-25Zm19 0h3v18h-3v-18Zm32 0h3v18h-3v-18Z"/>
</svg>