<svg xmlns="http://www.w3.org/2000/svg" viewBox="0 0 950 400">
  <defs>
    <radialGradient id="a" cx="250.6" cy="230.1" r="250" gradientTransform="matrix(.8 0 0 .8 289.7 14.7)" gradientUnits="userSpaceOnUse" spreadMethod="pad">
      <stop offset="0" stop-color="#591c87"/>
      <stop offset="1" stop-color="#210b33"/>
    </radialGradient>
  </defs>
  <path fill="url(#a)" d="M455 14.7c6.1-.5 11.7 3.2 17 3.8 8.3 1.3 14.5-4.3 22.6-3.8 6 1.3 10.5 5.7 16.6 7.5 6.9 1.9 13.6-1.3 21.1.7 6.1 1.8 9.8 8.7 16 11 6.2 2.7 13 1.4 18.5 4.4 6.9 3.2 8.7 11.3 15 15.6 5.5 3.2 12.3 3.2 16.7 7.6 4.9 3.7 5.6 10.5 9.3 15.4 4.3 6.2 12.9 7.5 17.3 13.8 3.7 5.5 2.5 12.4 6.2 18 3 6.1 9.9 9.2 13 15.5 3 5.6.6 12.4 2.4 18.6 1.9 6.9 8 11.3 10 18.1 1.3 6.8-2.6 13.1-2 19.3.7 6.7 5.6 13 5.6 19.8 0 6.9-4.9 12.4-5.5 19.3-.7 6.9 3 12.4 1.8 19.3-1.8 6.9-7.4 11.2-9.9 17.4-1.8 6.9.7 13.6-2.5 19.8-3 6.4-9.9 9.4-13 15.1-3.6 5.6-2.4 13.6-6.1 19.2-4.4 5-11.1 6.3-15.5 11.2-5 5-5.5 12.4-10.6 17.4-4.9 3.7-11 4.4-16.6 6.9-6.9 4.4-8.7 13-16.1 16.8-5.6 2.5-12.4 1.3-18.5 3.7-5.7 3.1-9.3 9.2-15.6 11.2-6.2 1.8-13-.7-19.2 0-6.7 1.3-11.7 7.4-18.4 8-7 0-13.1-4.3-20.5-4.3-6.2.7-11.1 4.4-17.3 4.4-7.4-.7-12.4-7-19.2-8.1-6.9-.7-13.6 1.8-19.8 0-6.2-2.5-9.9-8.7-16.1-11.2-6.2-3-13.6-1.4-19.2-4.4-6.2-3.7-8.7-11.2-14.2-15.4-5.6-3.9-12.4-3.2-17.3-8.2-5.6-4.4-5.6-12.5-10.6-17.3-4.9-4.4-11.8-6.4-15.5-11.3-4.3-5.6-3-13.2-6.2-18.6-3.7-6.3-10.5-8.7-13.6-15-2.5-6.3 0-13.1-1.8-19.2-1.9-6.2-8-10.6-10-17.4-1.3-7 2.6-13.1 2-19.9-.7-7-5.6-12.5-5.6-19.4 0-6.8 4.9-11.9 5.5-18.5 1.3-7-3-13.8-1.3-20.6 2-6.2 7.5-10 9.4-16.2 1.8-6.8-.7-14.3 2.5-20.5 3-5.5 9.9-8.7 13-14.3 3.6-5.6 2.4-13.2 6.1-19.2 4.4-5 11.8-7 16.2-12 4.3-4.8 4.8-12.4 9.9-16.7 4.9-3.7 11-4.4 16.6-7.4 6.9-3.8 8.7-11.9 15-16.3 6-3 12.9-1.3 19-3.7 6.3-2.5 10-9.2 16.2-11.8 7.4-1.8 14.1 2 21.7 0 5.5-1.8 9.9-6.8 15.4-8m13 71.4a83.9 83.9 0 0 0-19.8 23.7 37 37 0 0 0-5 16.2 32.2 32.2 0 0 0 29.1 34.2 32.3 32.3 0 0 0 34.1-29.9c.1-7.6-2-15.3-6.2-21.8a86.3 86.3 0 0 0-16.8-20.5 26 26 0 0 0-8.6-5.5c-2.6.5-4.3 2.4-6.8 3.7m-81.1 97.6v77.7c0 2.6-.6 5.7-3 6.8-3.1 2.6-8.8.7-9.3-3.6l-.7-12h-13l.6 12.6a19.8 19.8 0 0 0 39-3.2v-79l-13.6.7m38.3.7a18.7 18.7 0 0 0-13.5 17.3v61c-.4 4.6 1 9.2 3.7 13a18.5 18.5 0 0 0 32.8-7.4l.6-10.6v-54.2a19.2 19.2 0 0 0-23.6-19.8m35.4 0v13H474v2l-14.3 83.8h34v-13h-18.4l9.8-57.3 4.3-28.5h-29m45.1 0v13h13.7l-1.4 9.3-7.9 48.6-4.4 28h34.1v-13H521l1.3-9.4 9.3-52.8 3.7-23.8h-29.8m58.8.8a18.5 18.5 0 0 0-13.6 17.3v61.5c0 5.7 2.5 11.2 6.8 15 6.2 5.6 16.7 6.2 23 .6 4.7-3.7 7.5-9.5 7.3-15.6V205c0-4.3 0-8.7-2.5-11.8-4.2-7.4-13-11-21.1-8.6M426 293.8v25.5h8v-3l-5-.7v-21.8h-3.7m94 .7v2.5l3.1.5c-.5 7.5-2.4 14.4-3.7 21.8h8.7v-3l-4.3-.7 3-21.1h-7.5m13.6-.7v25.5h8v-3l-4.8-.7v-21.8h-3.2m13 .7v24.8h8v-3l-4.9-.7a54 54 0 0 1 0-9.2l4.4-.7v-3.2h-4.4v-5h5v-3h-8m-147.3 3-.7 13.2c0 2.4-.6 5 1.3 6.8a4.9 4.9 0 0 0 6.8 0c1.3-1.4 1.3-3.7 1.3-5.6h-2.6l-1.2 3.7-1.9-.7v-17.1h1.3l1.9 2.6h2.4c0-2 0-4-1.2-5-2.5-2-7.4-.7-8 2.4m16.7-3c-3.2 1.8-2.6 5.5-2.6 8v13c.8 3.1 5 4.4 7.5 2.6 1.8-1.9 1.8-4.4 1.8-6.9l-.6-13.7c0-3-3.7-4.4-6-3m26.5 0c-1.9 1.3-2.6 3.6-2.6 5.5v14.3c0 2.2 1.6 4 3.7 4.3 2.7.7 5-.5 5.7-3v-18.7c-1.3-2.6-4.3-3.8-6.8-2.6m11.7 0v25.1h3l.7-5.7 2.5 5.6h3l-1.8-5.6c.7-1.8 1.9-3.1 1.9-5v-9.2c0-2-.6-3.9-1.9-5h-7.3m24.2 0v24.8h3l.7-5c1.9-.6 4.4-.6 4.9-3 1.3-3.3.7-7 .7-10 0-2.6 0-5-1.9-6.2-1.8-1.3-5-1.3-7.4-.7m14.2 0V311c0 2.5-.6 5.6 2 6.8 1.8 2.5 6.7 1.3 7.3-1.8l.6-6.2v-15h-3v19.9c0 2-3.8 2-3.8 0v-19.9h-3m14.9 0v2.5l3 .6-3 21.1h8.6v-3h-5l3.6-21.2h-7.4.2Zm-39.1-204 7.9-5.7a69 69 0 0 1 27.9 34.8 29 29 0 1 1-52.6-6.8 77.7 77.7 0 0 1 17.3-22.5m8 0c0 2.7 2 3.2 3.2 5 3 2 5 5 7.4 7.6.7.6 1.9 1.3 2.5.6 0-2.6-1.8-3.8-3.1-5.7l-8.6-7.9-1.3.6m15.6 16.7-.6 1.3a13 13 0 0 0 3.7 6.1h1.9c0-3-1.9-4.9-3.7-7.4H491M459.4 123c-1.3 1.2-1.3 3.7-.6 5.6 0 1.3.6 2.5 1.8 2.5 2.5 0 3-3.2 3-5 0-1.9-1.8-4.4-4.2-3m27.8 0c-1.9 1.8-1.9 6.1.6 7.3 1.9 1.3 3.7-1.8 3.7-3.7 0-1.8-1.8-5-4.3-3.7m-27.3 11.1c-1.8 0-2.5 2.7-1.3 3.8 2.4 5.6 7.7 9.4 13.8 10 6.2.6 12.9-1.4 16.6-6.3 1.3-1.8 2.6-3.7 2.6-6.2-1.3-1.8-3.8-1.8-5.6-1.8l-26 .5ZM428 197c3.6-1.3 7.9 1.8 7.3 5.5l.7 59.7c0 1.9 0 4.4-2 5.6-1.8 1.8-4.9 2.6-6.7.6-1.9-1.3-2.5-3.6-2.5-5.5v-59.7c0-2.5 1.3-5 3.1-6.2Zm139.7 0c2.6-.7 5 0 6.2 2.5 1.3 1.2 1.3 2.4 1.3 4.4v59c0 1.9 0 3.7-1.8 4.9a5.5 5.5 0 0 1-8 0l-.7-5.6v-59c-.7-2.5.6-5.7 3-6.2ZM415.4 297.6h1.9l.6 9.3-.6 8.8h-1.9c-1.3-3.1-.6-6.8-.6-9.9 0-2.6-.6-5.6.6-8.2Zm26.6 0h1.8c1.3 2.7.7 5.7.7 8.8 0 3.1.6 6.2-.7 9.2H442v-18Zm13.6 0h2.6V311h-2.6v-13.3Zm24.2 0h2.5V311h-2.5v-13.3Z"/>
  <path fill="#eee" d="M467.7 86a83.2 83.2 0 0 0-19.8 23.7c-2.4 5-4.9 10.5-4.9 16a32.5 32.5 0 0 0 29 34.4 32.4 32.4 0 0 0 34.2-30 38 38 0 0 0-6.2-21.6 84.4 84.4 0 0 0-16.8-20.6 25.9 25.9 0 0 0-8.6-5.6c-2.5.7-4.4 2.5-6.9 3.7Zm-81 97.8v77.6c0 2.4-.6 5.6-3.1 6.8-3 2.6-8.7.6-9.3-3.7l-.6-11.9h-13l.6 12.5a19.8 19.8 0 0 0 39-3.1v-79l-13.7.6v.2Zm38.2.5a18.7 18.7 0 0 0-13.4 17.4v61a18.5 18.5 0 0 0 36.5 5.5l.6-10.6v-54.1a19.2 19.2 0 0 0-23.6-19.8v.6Zm35.4-.7v13.1H474v1.9l-14.2 84h34v-13.2h-18.4l9.7-57 4.4-28.8h-29Zm45.2 0v13.1h13.6l-1.3 9.3-8 48.6-4.3 28h34v-13.2h-18.4l1-9.3 9.3-52.8 3.8-23.7h-29.8.1Zm58.8.7a18.5 18.5 0 0 0-13.6 17.4v61.6a20 20 0 0 0 6.7 15c6.2 5.5 16.8 6.1 23 .5a19 19 0 0 0 7.4-15.5v-58.5c0-4.4 0-8.7-2.5-12a18.5 18.5 0 0 0-21-8.5ZM425.6 293.7v25.5h8.2v-3l-5-.6v-21.8h-3l-.2-.1Zm93.5.6v2.6l3 .6c-.5 7.4-2.3 14.3-3.6 21.7h8.7v-3l-4.4-.6 3.2-21.1h-7.5.6v-.2Zm13-.6v25.5h8v-3l-4.9-.6v-21.8h-3.1v-.1Zm13 .6v24.9h8v-3l-5-.6c-.2-3-.2-6.2 0-9.2l4.4-.7v-3.2h-4.3v-4.9h5v-3.1H545l.1-.2ZM398 297.5l-.7 13c0 2.6-.7 5 1.3 6.8a4.9 4.9 0 0 0 6.8 0c1.3-1.3 1.3-3.7 1.3-5.5H404l-1.2 3.7-1.8-.7v-17.3h1.3l1.9 2.4h2.3c0-1.9 0-3.7-1.1-4.9-2.6-1.8-7.4-.7-8 2.5h.6Zm16-3.2c-3.1 1.9-2.6 5.6-2.6 8.1v13.2c.8 3 5 4.2 7.6 2.4 1.8-1.9 1.8-4.4 1.8-6.9l-.7-13.6c0-3.2-3.6-4.3-6-3.2Zm26.6 0a7.1 7.1 0 0 0-2.5 5.6v14.4c0 2.1 1.6 4 3.7 4.3 2.7.6 5-.6 5.7-3.1v-18.6a5.4 5.4 0 0 0-6.9-2.6Zm12 0v24.9h2.8l.7-5.6 2.5 5.6h3l-1.8-5.6c.6-1.8 1.8-3.1 1.8-5v-9.2a7 7 0 0 0-1.8-5h-7.4.1Zm24 0v24.9h3l.7-5c1.8-.6 4.3-.6 4.8-3 1.4-3.1.7-7 .7-10 0-2.5 0-5-1.8-6.2-1.9-1.3-5-1.3-7.4-.7Zm14.2 0v16.2c0 2.6-.6 5.6 1.9 6.8 1.8 2.7 6.7 1.3 7.4-1.8l.5-6.2v-15h-3v19.9c0 2-3.7 2-3.7 0v-19.9h-3Zm14.8 0v2.6l3 .6-3 21.1h8.7v-3.1h-5l3.7-21.2h-7.4Zm-39-204 8-5.5a69 69 0 0 1 28.1 34.6 29 29 0 1 1-52.7-6.6 78 78 0 0 1 17.2-22.4h-.6Zm8.6 0c0 2.6 1.9 3.3 3.2 5.1 3 1.9 4.9 4.9 7.4 7.4.7.7 1.8 1.3 2.5.7 0-2.5-1.8-3.7-3.2-5.6l-8.5-8.2-1.4.7Zm15.8 16.9-.7 1.3a13 13 0 0 0 3.7 6.2h1.8c0-3.2-1.8-5-3.7-7.5h-1.3.2Zm-32 15.6c-1.1 1.3-1.1 3.6-.5 5.5 0 1.3.7 2.5 1.9 2.5 2.5 0 3-3 3-5 0-1.9-1.8-4.4-4.2-3h-.2Zm28 0c-2 1.8-2 6.2.6 7.3 1.8 1.4 3.7-1.8 3.7-3.7 0-1.8-1.9-5-4.4-3.6ZM459.7 134c-1.8 0-2.4 2.4-1.3 3.7 2.4 5.5 7.6 9.5 13.7 9.9 6.2.6 13-1.3 16.7-6.2 1.3-1.9 2.6-3.7 2.6-6.2-1.3-1.9-3.8-1.9-5.7-1.9l-26 .7Zm-32 62.7c3.6-1.3 7.8 1.9 7.3 5.6l.7 59.7c0 1.8 0 4.3-1.9 5.7-2 1.8-5 2.5-6.8.5-1.9-1.2-2.6-3.7-2.6-5.6V203c0-2.5 1.4-5 3.2-6.2Zm139.7 0c2.6-.6 5 0 6.2 2.5 1.3 1.4 1.3 2.5 1.3 4.4v59c0 1.9 0 3.7-1.9 5a5.5 5.5 0 0 1-8 0l-.7-5.6v-59c-.6-2.6.7-5.6 3-6.3ZM415.3 297.5h1.8l.7 9.3-.7 8.7h-1.8c-1.3-3-.7-6.9-.7-10 0-2.4-.5-5.6.7-8Zm26.5 0h1.9c1.3 2.4.7 5.6.7 8.7 0 3 .6 6.2-.7 9.3h-1.9v-18Zm13.6 0h2.7v13h-2.7v-13Zm24.2 0h2.5v13h-2.5v-13Z"/>
</svg>